<?xml version="1.0" standalone="no"?>
<!DOCTYPE svg PUBLIC "-//W3C//DTD SVG 20010904//EN"
 "http://www.w3.org/TR/2001/REC-SVG-20010904/DTD/svg10.dtd">
<svg version="1.0" xmlns="http://www.w3.org/2000/svg"
 width="512.000000pt" height="512.000000pt" viewBox="0 0 512.000000 512.000000"
 preserveAspectRatio="xMidYMid meet">
<metadata>
Created by potrace 1.11, written by Peter Selinger 2001-2013
</metadata>
<g transform="translate(0.000000,512.000000) scale(0.100000,-0.100000)"
fill="#000000" stroke="none">
<path d="M380 5101 c-188 -51 -334 -208 -370 -396 -8 -44 -10 -632 -8 -2180 3
-2082 3 -2121 23 -2175 27 -75 100 -180 160 -230 59 -49 151 -94 220 -109 72
-15 4233 -15 4307 0 86 18 195 76 253 134 68 67 123 168 143 260 8 35 11 671
11 2165 l0 2115 -23 72 c-58 178 -197 308 -375 350 -45 10 -459 13 -2166 12
-1989 0 -2114 -1 -2175 -18z"/>
</g>
</svg>
